<svg width="35" height="42" fill="none" xmlns="http://www.w3.org/2000/svg"><path d="M35 30.45c-.24.68-.48 1.31-.72 1.93a24.67 24.67 0 0 1-2.23 4.02 19.8 19.8 0 0 1-2.9 3.48 5.54 5.54 0 0 1-3.69 1.62c-.94 0-2.08-.27-3.41-.81a9.74 9.74 0 0 0-3.68-.81c-1.18 0-2.42.26-3.78.8a9.96 9.96 0 0 1-3.26.86c-1.27.04-2.51-.5-3.78-1.66-.81-.7-1.82-1.9-3.02-3.61a24.82 24.82 0 0 1-3.2-6.32A23.1 23.1 0 0 1 0 22.4c0-2.78.61-5.18 1.82-7.2.94-1.62 2.2-2.88 3.78-3.82a10.05 10.05 0 0 1 5.12-1.45c1 0 2.32.3 3.96.92 1.64.61 2.69.92 3.15.92.35 0 1.5-.37 3.48-1.1 1.86-.67 3.43-.94 4.72-.83 3.5.29 6.13 1.67 7.88 4.14-3.13 1.9-4.68 4.55-4.64 7.96a8.7 8.7 0 0 0 2.89 6.6A8.9 8.9 0 0 0 35 30.46ZM26.2 0a8.9 8.9 0 0 1-2.23 6.65c-1.83 2.14-4.04 3.37-6.43 3.17-.02-.24-.04-.5-.04-.79a9.5 9.5 0 0 1 5.34-8.1c1.2-.56 2.32-.89 3.37-.93Z" fill="#333"/></svg>